<svg id="Layer_4" enable-background="new 0 0 24 24" height="512" viewBox="0 0 24 24" width="512" xmlns="http://www.w3.org/2000/svg"><path d="m9.5 24h13.5c.552 0 1-.448 1-1v-5c0-.552-.448-1-1-1h-13.5c-.552 0-1 .448-1 1v5c0 .552.448 1 1 1z" fill="#90caf9"/><path d="m0 18v5c0 .552.448 1 1 1h5c.552 0 1-.448 1-1v-5c0-.552-.448-1-1-1h-5c-.552 0-1 .448-1 1z" fill="#90caf9"/><path d="m12 0h-11c-.553 0-1 .448-1 1v5c0 .552.447 1 1 1h11z" fill="#3990d5"/><path d="m0 14.5c0 .552.447 1 1 1h6 1.5 14.5c.553 0 1-.448 1-1v-5c0-.552-.447-1-1-1h-22c-.553 0-1 .448-1 1z" fill="#90caf9"/><path d="m23 0h-22c-.553 0-1 .448-1 1v5c0 .552.447 1 1 1h22c.553 0 1-.448 1-1v-5c0-.552-.447-1-1-1z" fill="#42a5f5"/><path d="m12 8.5h-11c-.553 0-1 .448-1 1v5c0 .552.447 1 1 1h6 1.5 3.5z" fill="#7db0d9"/><path d="m12 0h-11c-.553 0-1 .448-1 1v5c0 .552.447 1 1 1h11z" fill="#3990d5"/><g fill="#7db0d9"><path d="m16.25 17h-6.75c-.552 0-1 .448-1 1v5c0 .552.448 1 1 1h6.75z"/><path d="m3.5 17h-2.5c-.552 0-1 .448-1 1v5c0 .552.448 1 1 1h2.5z"/></g></svg>